# xmcd
#
# Track frame offsets:
# 150
# 17382
# 40312
# 62135
# 77427
# 90745
# 114590
# 129170
# 145032
# 157470
# 183980
#
# Disc length: 2689 seconds
#
# Revision: 0
# Processed by: cddbd v1.4PL0 Copyright (c) Steve Scherf et al.
# Submitted via: Audion 3.0.2 (http://www.panic.com/audion/)
#
DISCID=880a7f0b
DTITLE=Les Sans Culottes - Faux Realism
DYEAR=1900
DGENRE=
TTITLE0=sa sabine
TTITLE1=balzac 7502
TTITLE2=sos elephants
TTITLE3=les sauvages
TTITLE4=ecole de merde
TTITLE5=the tongue of romance
TTITLE6=demimonde
TTITLE7=non merci uncle sam
TTITLE8=apollinaire
TTITLE9=le coq sportif
TTITLE10=funky peripherique
EXTD=
EXTT0=
EXTT1=
EXTT2=
EXTT3=
EXTT4=
EXTT5=
EXTT6=
EXTT7=
EXTT8=
EXTT9=
EXTT10=
PLAYORDER=
